<svg xmlns="http://www.w3.org/2000/svg" viewBox="0 0 200 200" width="200" height="200">
  <defs>
    <radialGradient id="corg" cx="40%" cy="35%">
      <stop offset="0%" style="stop-color:#81c784"/>
      <stop offset="100%" style="stop-color:#2e7d32"/>
    </radialGradient>
  </defs>
  <g transform="translate(60, 40)">
    <path d="M40 20 Q20 0 10 30 Q0 60 10 80 Q15 90 25 85 Q20 60 30 40Z" fill="url(#corg)"/>
    <path d="M40 20 Q55 5 65 25 Q75 50 70 75 Q65 90 55 85 Q60 55 50 35Z" fill="#4caf50"/>
    <path d="M40 20 Q40 -5 45 30 Q45 65 40 85 Q38 65 38 40Z" fill="#388e3c"/>
    <line x1="40" y1="18" x2="40" y2="5" stroke="#6d4c41" stroke-width="1.5"/>
  </g>
  <g transform="translate(30, 90)">
    <path d="M40 20 Q20 0 10 30 Q0 60 10 80 Q15 90 25 85 Q20 60 30 40Z" fill="#66bb6a" opacity="0.7"/>
    <path d="M40 20 Q55 5 65 25 Q75 50 70 75 Q65 90 55 85 Q60 55 50 35Z" fill="#43a047" opacity="0.7"/>
  </g>
</svg>
