<svg xmlns="http://www.w3.org/2000/svg" viewBox="0 0 200 200" width="200" height="200">
  <defs>
    <radialGradient id="mg" cx="40%" cy="35%">
      <stop offset="0%" style="stop-color:#81c784"/>
      <stop offset="100%" style="stop-color:#2e7d32"/>
    </radialGradient>
  </defs>
  <g transform="translate(40,30)">
    <path d="M60 20 Q30 10 20 40 Q15 60 25 70 Q30 75 40 70 Q45 65 50 70 Q55 75 65 70 Q80 60 75 40 Q70 15 60 20Z" fill="url(#mg)"/>
    <path d="M60 20 L55 5" stroke="#6d4c41" stroke-width="2"/>
    <path d="M60 20 L65 8" stroke="#6d4c41" stroke-width="1.5"/>
  </g>
  <g transform="translate(55,80)">
    <path d="M50 15 Q25 8 18 35 Q12 50 22 58 Q28 63 36 58 Q40 55 44 58 Q48 62 56 58 Q68 50 64 35 Q58 12 50 15Z" fill="#66bb6a"/>
    <path d="M50 15 L47 3" stroke="#6d4c41" stroke-width="1.5"/>
  </g>
</svg>
